<svg viewBox="0 0 32 61" version="1.1" xmlns="http://www.w3.org/2000/svg" xmlns:xlink="http://www.w3.org/1999/xlink">
    <path stroke="none" stroke-width="1" fill="#1F2255" fill-rule="evenodd" d="M21.652,11.235 C21.723,11.476 21.785,11.708 21.552,11.908 C21.4409796,12.0036295 21.2961285,12.0505257 21.1501274,12.0381081 C21.0041263,12.0256905 20.8692757,11.9550052 20.776,11.842 C20.618,11.663 20.427,11.514 20.253,11.348 C20.182,11.282 20.124,11.207 20.045,11.124 C19.592,11.639 19.165,12.133 18.725,12.631 C18.7780727,12.7308229 18.840699,12.8252647 18.912,12.913 C19.0796141,13.0501049 19.1482642,13.2745984 19.086,13.482 C19.0390026,13.7108211 19.0056107,13.942227 18.986,14.175 C18.9450344,14.1246388 18.9113701,14.0687561 18.886,14.009 C18.8684811,13.8366317 18.8380625,13.6658195 18.795,13.498 C18.753,13.386 18.633,13.298 18.546,13.203 C18.5272882,13.2106047 18.5078563,13.2163003 18.488,13.22 C18.4817365,13.3182336 18.4817365,13.4167664 18.488,13.515 C18.5131942,13.7657987 18.4002257,14.0105 18.193,14.154 C18.0040896,14.3058423 17.9484478,14.5698272 18.06,14.785 C18.209,15.038 18.392,15.271 18.56,15.512 C18.593,15.558 18.622,15.599 18.68,15.678 C18.38,15.753 18.115,15.815 17.858,15.894 C17.808,15.911 17.738,16.01 17.746,16.048 C17.7684013,16.1612268 17.823305,16.2654745 17.904,16.348 C17.979,16.406 18.112,16.394 18.269,16.423 C18.223,16.489 18.198,16.564 18.149,16.597 C18.0049537,16.6805727 17.8532674,16.7502212 17.696,16.805 C17.6153391,16.8155393 17.5333827,16.8097581 17.455,16.788 C17.301,16.776 17.255,16.842 17.223,17 C17.1851586,17.3822161 17.0690858,17.7525599 16.882,18.088 C16.554,18.599 16.268,19.13 15.956,19.649 C15.856,19.819 15.707,19.965 15.603,20.135 C15.4956261,20.2972168 15.4105317,20.4731234 15.35,20.658 C15.2626467,21.0733356 15.0828643,21.4636616 14.824,21.8 C14.6177885,22.0081768 14.394324,22.198523 14.156,22.369 C13.9898841,22.5483515 13.9629408,22.8161522 14.09,23.025 C14.1156343,23.0635862 14.1447565,23.0997378 14.177,23.133 C14.377,23.287 14.293,23.449 14.206,23.627 C13.969,24.117 13.745,24.615 13.506,25.101 C13.116,25.901 12.725,26.701 12.306,27.484 C12.1106032,27.8356959 11.8942118,28.1753101 11.658,28.501 C11.5017667,28.7366214 11.4354013,29.0205379 11.471,29.301 C11.514275,29.613524 11.5780797,29.9228597 11.662,30.227 C11.699,30.414 11.762,30.592 11.782,30.779 C11.790318,30.8663359 11.7599895,30.9529364 11.699,31.016 C11.2258829,31.3945789 10.8066772,31.8359897 10.453,32.328 C10.3385579,32.5402607 10.2521687,32.7664862 10.196,33.001 C10.088,33.321 10.013,33.657 9.896,33.968 C9.79124929,34.3048708 9.74756215,34.6577546 9.767,35.01 C9.746,35.691 9.725,36.368 9.709,37.049 C9.72135705,37.2120996 9.72135705,37.3759004 9.709,37.539 C9.66384616,37.4676835 9.6275773,37.3911159 9.601,37.311 C9.48882628,36.8291701 9.4344432,36.3356941 9.439,35.841 C9.439,35.559 9.427,35.281 9.439,35.002 C9.46,34.479 9.472,33.96 9.518,33.441 C9.55830744,33.0290709 9.69796994,32.6330745 9.925,32.287 C10.016,32.146 10.008,31.934 10.104,31.793 C10.37,31.403 10.216,31.033 10.096,30.651 C9.98412784,30.3725654 9.90883339,30.0807994 9.872,29.783 C9.8579405,29.386363 9.89831631,28.9896707 9.992,28.604 C10.0841809,28.335002 10.2170578,28.0817264 10.386,27.853 C10.4795333,27.7485565 10.4882533,27.5932578 10.407,27.479 C10.253,27.242 10.133,26.989 9.979,26.752 C9.89839965,26.6343191 9.79668094,26.5326003 9.679,26.452 C9.14040921,26.0776698 8.75427763,25.5222508 8.591,24.887 C8.56497756,24.7190867 8.58077762,24.5473468 8.637,24.387 C8.737,23.98 8.837,23.573 8.973,23.179 C9.048,22.955 8.94,22.779 8.902,22.589 C8.844,22.289 8.773,21.983 8.728,21.676 C8.686,21.423 8.691,21.157 8.628,20.908 C8.58355335,20.7228768 8.50924693,20.5462302 8.408,20.385 C7.976,19.667 7.524,18.961 7.1,18.243 C7.00683595,18.0469447 6.93185505,17.8427557 6.876,17.633 C6.83686623,17.6654796 6.79504989,17.6945838 6.751,17.72 C6.65300572,17.7526549 6.57870242,17.8334255 6.55432032,17.9337985 C6.52993822,18.0341714 6.55890691,18.1400283 6.631,18.214 C6.68682212,18.2997729 6.73532662,18.3900916 6.776,18.484 C6.59197626,18.5330795 6.39627602,18.4696727 6.276,18.322 C6.10148329,18.165262 6.00064833,17.9425546 5.998,17.708 C5.998,17.446 5.965,17.181 5.948,16.957 C5.711,16.866 5.491,16.791 5.275,16.7 C5.233,16.683 5.209,16.621 5.175,16.58 C5.21891985,16.5619275 5.2649534,16.5494951 5.312,16.543 C5.49,16.543 5.578,16.431 5.499,16.261 C5.45137877,16.1634752 5.39301722,16.0715726 5.325,15.987 C5.17650363,15.746741 5.09885867,15.4694376 5.101,15.187 C5.07819131,14.9940157 5.09072932,14.7984905 5.138,14.61 C5.167,14.477 5.296,14.369 5.321,14.236 C5.37022497,13.9720921 5.39665574,13.7044387 5.4,13.436 C5.412,12.917 5.3,12.784 4.8,12.572 C4.57315531,12.4632104 4.36330122,12.3220726 4.177,12.153 C3.857,11.875 3.554,11.576 3.264,11.273 C3.12642947,11.1077736 2.99886821,10.9344639 2.882,10.754 C2.67,10.472 2.446,10.198 2.243,9.907 C2.07742667,9.73782269 1.97202202,9.51893235 1.943,9.284 C2.229,9.575 2.491,9.849 2.761,10.11 C3.201,10.533 3.645,10.957 4.098,11.364 C4.25848673,11.491981 4.43252751,11.6019721 4.617,11.692 C5.207,12.02 5.788,12.365 6.394,12.655 C7.033,12.962 7.694,13.228 8.354,13.477 C8.754,13.626 9.18,13.701 9.579,13.842 C10.2426195,14.0200897 10.9184443,14.1491047 11.601,14.228 C11.6651654,14.232506 11.729639,14.2267675 11.792,14.211 C11.838,14.211 11.892,14.178 11.921,14.194 C12.3293633,14.2749188 12.7496367,14.2749188 13.158,14.194 C13.3366703,14.2017549 13.5156408,14.1990837 13.694,14.186 C14.1316507,14.131362 14.5602819,14.0197498 14.969,13.854 C15.384,13.654 15.824,13.514 16.244,13.327 C16.4870973,13.2115304 16.7210999,13.0778146 16.944,12.927 C17.218,12.748 17.488,12.562 17.744,12.367 C18.018,12.159 18.284,11.939 18.549,11.719 C18.773,11.536 19.014,11.366 19.222,11.167 C19.3321952,11.0548023 19.4135216,10.9175424 19.459,10.767 C19.509,10.613 19.467,10.435 19.517,10.281 C19.577255,10.0927892 19.6637752,9.91402579 19.774,9.75 C19.907,9.542 19.882,9.434 19.645,9.36 C19.388,9.281 19.354,9.231 19.345,8.966 C19.3091118,8.70786379 19.388042,8.44695584 19.561,8.252 C19.6905299,8.08148393 19.7176919,7.85424124 19.632,7.658 C19.5474641,7.4935326 19.5489223,7.29807237 19.6359026,7.13488454 C19.722883,6.97169672 19.8843346,6.86151416 20.068,6.84 C20.2138722,6.78517957 20.3530875,6.71406235 20.483,6.628 C20.205,6.607 19.968,6.603 19.736,6.566 C19.6293123,6.53927434 19.5344132,6.47811714 19.466,6.392 C19.366,6.276 19.441,6.168 19.524,6.06 C19.694,5.844 19.873,5.632 20.024,5.4 C20.161,5.188 20.265,4.952 20.385,4.732 C20.5089618,4.54246071 20.714982,4.42240576 20.941,4.408 C21.2722329,4.36500876 21.6089574,4.40486595 21.921,4.524 C22.498,4.673 23.088,4.761 23.656,4.931 C24.1889434,5.02548674 24.6327345,5.39366623 24.824,5.9 C24.9426455,6.13842729 25.0814858,6.36625921 25.239,6.581 C25.513,7.067 25.77,7.561 26.039,8.055 C26.0536477,8.09041264 26.0578129,8.12928801 26.051,8.167 C25.964,8.644 25.872,9.122 25.785,9.599 C25.706,10.035 25.627,10.467 25.553,10.907 C25.516,11.156 25.499,11.407 25.47,11.658 C25.46027,11.850116 25.4311215,12.040754 25.383,12.227 C25.3367236,12.4236429 25.3728516,12.6306564 25.483,12.8 C25.624,13.095 25.783,13.377 25.915,13.676 C26.201,14.349 26.471,15.025 26.754,15.694 C26.8125755,15.8173555 26.8793934,15.9366255 26.954,16.051 C27.145,16.383 27.348,16.707 27.523,17.051 C27.83,17.636 28.123,18.23 28.423,18.82 C28.597,19.169 28.759,19.52 28.934,19.866 C29.134,20.244 29.345,20.617 29.544,20.995 C29.723,21.34 29.897,21.688 30.071,22.033 C30.271,22.427 30.465,22.818 30.661,23.212 C30.781,23.457 30.893,23.706 31.018,23.951 C31.159,24.225 31.296,24.499 31.462,24.756 C31.8105025,25.2870794 31.9217639,25.9394269 31.769,26.556 C31.7147616,26.9412495 31.6813796,27.3291482 31.669,27.718 C31.6460403,27.90505 31.612655,28.0906722 31.569,28.274 C31.523,28.502 31.478,28.735 31.428,28.963 C31.4124664,29.0251398 31.3930959,29.086257 31.37,29.146 C31.2884375,29.3278021 31.2244786,29.5169996 31.179,29.711 C31.1799425,30.0567969 30.9615211,30.3651565 30.635,30.479 C30.571394,30.5102969 30.5138375,30.5526179 30.465,30.604 C30.2060728,30.855755 29.8326977,30.9506227 29.485,30.853 C29.02,30.733 28.547,30.645 28.085,30.496 C27.5697902,30.3899115 27.0863596,30.1653149 26.673,29.84 C26.66,29.832 26.652,29.815 26.644,29.811 C26.1,29.678 25.851,29.163 25.436,28.864 C25.2447119,28.6884376 25.1126351,28.4578273 25.058,28.204 C24.8288713,27.5036284 24.6812304,26.7791814 24.618,26.045 C24.56,25.617 24.46,25.194 24.394,24.766 C24.369,24.596 24.369,24.421 24.352,24.247 C24.335,24.239 24.319,24.235 24.302,24.226 C24.19,24.384 24.061,24.537 23.962,24.708 C23.8,24.982 23.655,25.268 23.509,25.551 C23.469447,25.6236358 23.4494598,25.7053077 23.451,25.788 C23.468,26.088 23.513,26.394 23.522,26.697 C23.5301979,27.0195488 23.5218536,27.3423057 23.497,27.664 C23.5051444,27.8971268 23.47439,28.1299815 23.406,28.353 C23.2833109,28.6830482 23.2351603,29.0361524 23.265,29.387 C23.2452065,29.7186442 23.2633237,30.051464 23.319,30.379 C23.4260619,30.677446 23.5712658,30.9607953 23.751,31.222 C23.859,31.409 24.017,31.567 24.116,31.758 C24.3034238,32.1195613 24.5881225,32.4215774 24.938,32.63 C25.27,32.821 25.594,33.03 25.918,33.23 C26.2308367,33.3960805 26.5888125,33.4570871 26.939,33.404 C27.67,33.358 28.4,33.304 29.131,33.255 C29.144,33.28 29.156,33.309 29.168,33.334 C29.0891271,33.4431498 28.9940282,33.5395977 28.886,33.62 C28.67,33.732 28.492,33.952 28.201,33.886 C28.1745626,33.8838061 28.1491074,33.8965338 28.135,33.919 C28.035,34.143 27.835,34.11 27.635,34.127 C27.4972018,34.1481631 27.362741,34.1871568 27.235,34.243 C27.2058917,34.2530215 27.1830215,34.2758917 27.173,34.305 C27.1260203,34.4673277 27.1147621,34.6379059 27.14,34.805 C27.24,35.067 27.119,35.287 27.074,35.515 C27.012,35.851 26.883,36.171 26.792,36.499 C26.576,37.267 26.392,38.039 26.149,38.799 C25.9720225,39.3266355 25.7684282,39.8449665 25.539,40.352 C25.194,41.152 24.833,41.952 24.48,42.752 C24.4541724,42.7970989 24.4453062,42.8499411 24.455,42.901 C24.535837,43.2362737 24.5611729,43.5825305 24.53,43.926 C24.53,43.963 24.53,44.005 24.53,44.042 C24.5699009,44.4707747 24.4725523,44.9011399 24.252,45.271 C23.9973241,45.7458085 23.7673509,46.2334585 23.563,46.732 C23.326,47.305 23.123,47.894 22.899,48.472 C22.741,48.872 22.579,49.277 22.422,49.684 C22.248,50.145 22.102,50.618 21.895,51.058 C21.729,51.411 21.949,51.664 22.036,51.958 C22.173468,52.2733508 22.2618258,52.6078962 22.298,52.95 C22.285,53.656 22.29,54.366 22.298,55.072 C22.3074125,55.2528518 22.3466058,55.4309107 22.414,55.599 C22.476,55.761 22.472,55.873 22.323,55.977 C22.0219936,56.2131266 21.6505709,56.3416283 21.268,56.342 C20.8246257,56.3664651 20.3934277,56.4960302 20.01,56.72 C19.574,56.911 19.159,57.148 18.735,57.364 C17.265,58.12 15.796,58.884 14.309,59.614 C13.899818,59.7871182 13.4795534,59.9327743 13.051,60.05 C12.851,60.116 12.644,60.17 12.445,60.25 C12.3210745,60.3062981 12.1746088,60.2638443 12.1,60.15 C11.793,59.801 11.481,59.45 11.178,59.104 C10.85,58.726 10.526,58.344 10.198,57.962 C10.044,57.783 9.903,57.597 9.737,57.426 C9.571,57.255 9.625,57.061 9.617,56.882 C9.571,56.16 9.571,55.433 9.517,54.711 C9.50061322,54.4592683 9.44178418,54.2121187 9.343,53.98 C9.24604709,53.7127343 9.28324178,53.4151768 9.443,53.18 C9.5669966,52.9301659 9.64040258,52.6582919 9.659,52.38 C9.68,52.222 9.701,52.06 9.717,51.898 C9.75487327,51.5109356 9.67059724,51.1217272 9.476,50.785 C9.32491441,50.5583232 9.1982106,50.3163122 9.098,50.063 C9.07284108,49.8714034 9.09270009,49.6765797 9.156,49.494 C9.2557665,49.1538745 9.33754648,48.8087296 9.401,48.46 C9.48856369,47.9260944 9.44427822,47.378877 9.272,46.866 C9.09638638,46.4595161 9.00455566,46.0217897 9.002,45.579 C9.023,45.143 9.002,44.703 8.981,44.263 C8.96583537,44.0236054 9.08038556,43.794505 9.281,43.663 C9.7,43.347 10.111,43.032 10.535,42.725 C10.996,42.389 11.469,42.073 11.922,41.725 C12.1385333,41.5471255 12.3436087,41.355744 12.536,41.152 C12.918,40.77 13.3,40.388 13.678,40.006 C14.155,39.52 14.65,39.039 15.102,38.528 C15.554,38.017 16.002,37.465 16.414,36.909 C16.6537975,36.5673486 16.874147,36.2124524 17.074,35.846 C17.444,35.211 17.821,34.58 18.162,33.928 C18.503,33.276 18.826,32.628 19.113,31.96 C19.2031006,31.6718975 19.2657134,31.3759093 19.3,31.076 C19.362,30.776 19.437,30.476 19.5,30.171 C19.591,29.723 19.67,29.271 19.762,28.818 C19.862,28.332 19.962,27.846 20.057,27.357 C20.0639828,27.3241533 20.066672,27.2905391 20.065,27.257 C20.077,26.8 20.086,26.344 20.102,25.887 C20.1226667,25.3223333 20.1476667,24.7576667 20.177,24.193 C20.198,23.74 20.227,23.284 20.252,22.831 C20.273,22.453 20.335,22.08 20.318,21.706 C20.301,21.175 20.218,20.647 20.173,20.12 C20.144,19.863 20.144,19.601 20.09,19.348 C20.036,19.078 19.932,18.821 19.858,18.555 C19.8382293,18.482665 19.8228677,18.4091966 19.812,18.335 C19.8296904,18.3208181 19.8463956,18.3054493 19.862,18.289 C20.045,18.414 20.232,18.534 20.41,18.663 C20.568,18.775 20.717,18.891 20.875,19.003 C20.9014809,19.0214942 20.9340927,19.02902 20.966,19.024 C21.248,18.941 21.452,19.153 21.701,19.203 C21.8530363,19.2581822 22.0083311,19.3039357 22.166,19.34 C22.577,19.369 22.988,19.373 23.399,19.386 C23.445,19.386 23.49,19.378 23.536,19.386 C23.607,19.394 23.673,19.407 23.744,19.415 C23.744,19.436 23.744,19.452 23.736,19.473 C23.811,19.448 23.881,19.427 23.944,19.407 C23.907,18.971 23.882,18.548 23.836,18.12 C23.794,17.734 23.753,17.344 23.682,16.962 C23.618184,16.5795164 23.5266087,16.2021858 23.408,15.833 C23.1889328,15.2591929 22.8008167,14.7654172 22.295,14.417 C22.158177,14.2968327 22.0416749,14.1553417 21.95,13.998 C21.6376145,13.4407805 21.6189231,12.7656498 21.9,12.192 C21.9851488,11.8528111 21.8963461,11.4934785 21.663,11.233 C21.663,11.175 21.68,11.1 21.651,11.067 C21.46,10.83 21.251,10.606 21.041,10.361 C20.912,10.598 20.941,10.589 21.112,10.706 C21.310916,10.8653477 21.4956106,11.0416775 21.664,11.233 M10.13,46.253 C10.4541278,46.2256287 10.7237888,45.9927029 10.798,45.676 C10.7936976,45.2785382 10.5019654,44.942771 10.109,44.883 C9.75762636,44.9037847 9.48120775,45.191086 9.474,45.543 C9.47532945,45.9140246 9.76023819,46.2223862 10.13,46.253 M10.906,50.06 C10.9008365,49.6882466 10.6127389,49.381926 10.242,49.354 C9.88158677,49.3819635 9.60516029,49.6855508 9.611,50.047 C9.62683139,50.4084899 9.91375595,50.6993035 10.275,50.72 C10.4488802,50.7246845 10.6166361,50.655637 10.7368394,50.5299093 C10.8570427,50.4041817 10.9184876,50.2334945 10.906,50.06 M11.147,53.805 C11.1426606,53.4460125 10.8692422,53.1476205 10.512,53.111999 C10.343524,53.1116945 10.1820367,53.179311 10.0640405,53.2995655 C9.94604426,53.4198201 9.88150101,53.58256 9.885,53.751 C9.87441539,54.1176261 10.1440787,54.4323054 10.508,54.478 C10.682267,54.4743459 10.8478402,54.4011715 10.9678584,54.2747674 C11.0878765,54.1483634 11.1523769,53.9792223 11.147,53.805 M21.817,6.014 L21.439,5.814 C21.298,5.997 21.157,6.184 20.995,6.391 C21.273,6.262 21.543,6.138 21.817,6.009 M5.215,20.1 C5.19,20.088 5.165,20.079 5.14,20.067 C4.949,20.229 4.75,20.387 4.563,20.557 C4.376,20.727 4.214,20.914 4.032,21.08 C3.61204906,21.3586987 3.21751805,21.6739219 2.853,22.022 C2.6576886,22.2442197 2.47856262,22.480158 2.317,22.728 C2.143,23.035 2.043,23.38 1.885,23.7 C1.727,24.02 1.545,24.339 1.374,24.659 C1.23031578,24.8630901 1.11962967,25.0885118 1.046,25.327 C0.946,25.927 0.897,26.527 0.846,27.133 C0.78,27.868 0.705,28.603 0.672,29.333 C0.639,30.063 0.664,30.807 0.651,31.546 C0.611955038,32.3044846 0.669075686,33.0648613 0.821,33.809 C0.962,34.419 1.121,35.025 1.236,35.64 C1.344,36.217 1.402,36.798 1.489,37.38 C1.609,38.206 1.746,39.028 1.854,39.859 C1.95933526,40.4398454 1.95662322,41.0351385 1.846,41.615 C1.82631207,41.6802131 1.82631207,41.7497869 1.846,41.815 C2.037,42.33 2.236,42.84 2.436,43.351 C2.606,43.791 2.793,44.227 2.473,44.684 C2.44795184,44.7296168 2.43520098,44.7809648 2.436,44.833 C2.403,45.053 2.353,45.273 2.336,45.489 C2.31864345,45.7597158 2.33273757,46.0315311 2.378,46.299 C2.45709978,46.5865573 2.55258918,46.8693529 2.664,47.146 C2.77647876,47.4015838 2.8561132,47.6703921 2.901,47.946 C2.967,48.88 3.001,49.81 3.038,50.746 C3.05,50.978 3.013,51.211 3.038,51.446 C3.06266667,51.824 3.10433333,52.2016667 3.163,52.579 C3.26141559,52.9229185 3.41581623,53.2482747 3.62,53.542 C4.01,54.281 4.484,54.974 4.82,55.742 C5.14544368,56.3405757 5.56134135,56.885324 6.053,57.357 C6.31994849,57.6068415 6.53445553,57.9073554 6.684,58.241 C6.817,58.611 7.174,58.641 7.411,58.332 C7.47911944,58.253415 7.5590807,58.1859372 7.648,58.132 C8.134,57.812 8.628,57.493 9.118,57.169 C9.1539135,57.1335124 9.1759114,57.0863233 9.18,57.036 C9.19924113,56.9011278 9.21026148,56.7652102 9.213,56.629 C9.234,55.969 9.271,55.313 9.25,54.657 C9.2099687,54.3480324 9.1403147,54.043631 9.042,53.748 C8.9602681,53.4931346 9.03493387,53.2140175 9.233,53.034 C9.30641131,52.9693633 9.36100049,52.8860975 9.391,52.793 C9.46542772,52.5169434 9.51528873,52.2348439 9.54,51.95 C9.56693054,51.6918211 9.5428058,51.4308661 9.469,51.182 C9.32020782,50.8175384 9.14403776,50.464864 8.942,50.127 C8.84280335,49.9271424 8.82210917,49.6973655 8.884,49.483 C9.07336066,48.9294346 9.15086072,48.3437653 9.112,47.76 C9.075,47.519 9.05,47.274 9.004,47.033 C8.92799096,46.7334483 8.86823704,46.4300052 8.825,46.124 C8.771,45.397 8.754,44.663 8.725,43.932 C8.73882895,43.8738293 8.7746747,43.8232868 8.825,43.791 C9.045,43.621 9.282,43.475 9.485,43.291 C9.65386609,43.1785416 9.74962324,42.9843014 9.73599038,42.7818741 C9.72235753,42.5794469 9.60142025,42.3998003 9.419,42.311 C9.37607258,42.2813453 9.33590961,42.2478761 9.299,42.211 C8.999,41.911 8.689,41.611 8.406,41.285 C8.123,40.959 7.879,40.585 7.584,40.272 C7.05803858,39.6471349 6.61812862,38.9546467 6.276,38.213 C5.981,37.661 5.707,37.096 5.437,36.532 C5.217,36.079 5.022,35.619 4.802,35.166 C4.67593073,34.8518136 4.59219699,34.5222591 4.553,34.186 C4.416,33.447 4.217,32.72 4.08,31.986 C3.993,31.525 3.955,31.06 3.914,30.591 C3.85810548,30.0929233 3.82906346,29.5921989 3.827,29.091 C3.827,28.605 3.906,28.119 3.956,27.63 C4.035,26.83 4.097,26.03 4.193,25.239 C4.28,24.504 4.376,23.761 4.504,23.039 C4.624,22.371 4.795,21.715 4.952,21.054 C4.998,20.854 5.077,20.672 5.135,20.477 C5.16,20.357 5.181,20.232 5.21,20.107 M16.981,0 C17.222,0.17 17.471,0.332 17.699,0.523 C17.753,0.569 17.741,0.706 17.736,0.797 C17.703,1.187 17.661,1.582 17.624,1.976 C17.574,2.491 17.524,3.001 17.47,3.516 C17.437,3.852 17.416,4.189 17.383,4.516 C17.333,5.076 17.283,5.637 17.229,6.197 C17.217067,6.47950027 17.1880137,6.76101695 17.142,7.04 C17.0806484,7.2866048 16.982551,7.52257811 16.851,7.74 C16.462627,8.32330853 15.9832039,8.84054518 15.431,9.272 C15.0636293,9.59944949 14.6547907,9.87716387 14.215,10.098 C13.8099856,10.2675206 13.3863941,10.3886905 12.953,10.459 C12.5922516,10.5312156 12.2276502,10.5826337 11.861,10.613 C11.7245515,10.6163035 11.588134,10.6052426 11.454,10.58 C10.699553,10.5236064 9.96471647,10.3129238 9.295,9.961 C8.7942976,9.67802735 8.31048035,9.36616724 7.846,9.027 C7.546,8.815 7.31,8.516 7.016,8.3 C6.67588892,8.03470182 6.41452177,7.68171788 6.26,7.279 C6.18298141,7.04890862 6.13297897,6.81064194 6.111,6.569 C6.04,6.112 5.982,5.651 5.911,5.191 C5.857,4.763 5.811,4.336 5.749,3.904 C5.687,3.472 5.62,3.016 5.558,2.567 C5.496,2.118 5.475,1.667 5.384,1.226 C5.326,0.926 5.463,0.803 5.662,0.626 C5.85583636,0.432269667 6.0784674,0.269681541 6.322,0.144 C6.28964009,0.229794806 6.25086373,0.313030266 6.206,0.393 C5.92,0.875 5.944,1.099 6.36,1.431 C6.584,1.618 6.775,1.842 6.999,2.021 C7.20221011,2.18214616 7.41902376,2.32535023 7.647,2.449 C7.76531675,2.50577924 7.84667969,2.61878333 7.863,2.749 C7.909,3.202 7.946,3.649 7.992,4.102 C8.029,4.476 8.067,4.849 8.121,5.219 C8.129,5.281 8.208,5.352 8.27,5.389 C8.35970412,5.44030877 8.45589901,5.47932488 8.556,5.505 C8.639,5.53 8.801,5.571 8.813,5.547 C8.87512507,5.43656072 8.90944554,5.31266383 8.913,5.186 C8.913,4.829 8.896,4.472 8.896,4.115 C8.888,3.80366667 8.888,3.49233333 8.896,3.181 C8.896,2.932 9.025,2.87 9.266,2.936 C9.49088806,2.98617955 9.71818128,3.02489617 9.947,3.052 C9.976,3.289 10.013,3.525 10.038,3.766 C10.071,4.166 10.092,4.571 10.121,4.966 C10.142,5.261 10.163,5.556 10.179,5.85 C10.187,6.016 10.258,6.095 10.432,6.095 C10.669,6.095 10.905,6.116 11.183,6.132 L11.183,3.326 L12.462,3.326 L12.462,4.368 C12.462,4.654 12.474,4.941 12.479,5.227 C12.479,5.389 12.487,5.551 12.479,5.713 C12.479,6.07 12.57,6.149 12.915,6.103 C13.554,6.016 13.488,6.003 13.515,5.451 C13.548,4.7 13.59,3.951 13.631,3.197 C13.631,3.139 13.643,3.081 13.643,3.048 C14.013,2.89 14.37,2.741 14.743,2.583 C14.7739746,2.64602369 14.7948944,2.71350694 14.805,2.783 C14.805,3.335 14.793,3.892 14.788,4.444 C14.788,4.697 14.796,4.951 14.796,5.204 C14.796,5.353 14.887,5.37 14.996,5.324 C15.1474327,5.26300482 15.2921937,5.18660319 15.428,5.096 C15.4991052,5.03420914 15.5450165,4.94843693 15.557,4.855 C15.582,4.515 15.582,4.166 15.603,3.821 C15.624,3.373 15.657,2.921 15.674,2.48 C15.686,2.227 15.89,2.127 16.039,1.98 C16.188,1.833 16.35,1.698 16.487,1.536 C16.657,1.336 16.807,1.113 16.956,0.892 C17.1428246,0.697268442 17.163861,0.396869204 17.006,0.178 C16.9806609,0.129898777 16.9637497,0.0778120665 16.956,0.024 C16.956,0.024 16.964,0.012 16.973,0.003 M12.759,9.722 C12.7728092,9.7143808 12.7853022,9.70458895 12.796,9.693 C12.784,9.639 12.771,9.593 12.754,9.535 C12.667,9.269 12.58,8.999 12.488,8.735 C12.4429481,8.63699059 12.4786727,8.52077806 12.571,8.465 C12.808,8.282 13.044,8.087 13.271,7.896 C13.304,7.867 13.333,7.83 13.391,7.767 C13.308,7.759 13.266,7.755 13.225,7.755 C12.943,7.755 12.66,7.747 12.382,7.755 C12.2478238,7.77861725 12.1198613,7.68913302 12.096,7.555 C12.046,7.372 11.984,7.194 11.922,7.011 C11.868,6.849 11.814,6.687 11.764,6.525 C11.7196006,6.5450426 11.6840426,6.58060063 11.664,6.625 C11.573,6.936 11.477,7.252 11.394,7.567 C11.3860505,7.62838967 11.3538971,7.68405665 11.3046926,7.72161733 C11.2554881,7.75917801 11.1933135,7.77551716 11.132,7.767 C10.883,7.767 10.632,7.784 10.389,7.792 L10.115,7.809 C10.198,7.884 10.231,7.921 10.273,7.95 C10.505,8.129 10.734,8.311 10.973,8.481 C11.0778114,8.54092895 11.1262296,8.66614852 11.089,8.781 C11.031,9.043 10.989,9.304 10.94,9.57 C10.932,9.632 10.927,9.699 10.915,9.815 C11.181,9.599 11.405,9.429 11.608,9.238 C11.652331,9.17902686 11.7204467,9.14264589 11.7941126,9.13859619 C11.8677785,9.13454649 11.9394717,9.16324164 11.99,9.217 C12.231,9.4 12.497,9.549 12.75,9.717 M10.65,35.479 C10.9387828,35.6930143 11.2523941,35.8713094 11.584,36.01 C12.1964188,36.2219777 12.8540762,36.2678688 13.49,36.143 C13.69,36.089 13.901,36.068 14.105,36.027 C14.6889538,35.944911 15.2562771,35.7711029 15.786,35.512 C15.9393586,35.4003544 16.110893,35.3161097 16.293,35.263 C16.6895145,35.1729655 17.0386343,34.939269 17.273,34.607 C17.4133153,34.4876341 17.4401384,34.2812697 17.335,34.13 C17.215,33.96 17.127,33.773 17.015,33.599 C16.7881385,33.3231496 16.6341037,32.9947943 16.567,32.644 C16.5409659,32.3612114 16.4938346,32.0807637 16.426,31.805 C16.3579221,31.4248404 16.4281578,31.0328689 16.624,30.7 C16.81136,30.3510995 17.0180136,30.0129087 17.243,29.687 C17.344596,29.5361591 17.4231266,29.371009 17.476,29.197 C17.5281821,28.9394285 17.5616032,28.6784096 17.576,28.416 C17.5779338,28.0711597 17.489314,27.7318528 17.319,27.432 C17.2064699,27.1942039 17.1241628,26.9432512 17.074,26.685 C17.003,26.315 16.999,25.934 16.925,25.568 C16.8461059,25.1459713 16.8376582,24.7137894 16.9,24.289 C16.946,23.936 16.966,23.583 17.008,23.23 C17.029,23.051 17.066,22.873 17.099,22.694 C17.153,22.374 17.199,22.055 17.261,21.739 C17.307,21.494 17.369,21.253 17.423,20.992 C17.635627,21.0813542 17.8435632,21.181484 18.046,21.292 C18.391,21.504 18.719,21.736 19.063,21.948 C19.15,22.002 19.308,22.048 19.363,22.014 C19.5,21.923 19.388,21.777 19.351,21.661 C19.339,21.628 19.301,21.603 19.28,21.57 C18.9978477,21.1930643 18.6402475,20.8790572 18.23,20.648 C17.848,20.395 17.449,20.162 17.063,19.913 C16.814,19.755 16.801,19.813 16.648,20.013 C16.495,20.213 16.337,20.413 16.179,20.613 C15.9642043,20.8343046 15.8159032,21.111503 15.751,21.413 C15.676,21.973 15.622,22.538 15.531,23.099 C15.46,23.572 15.34,24.037 15.265,24.506 C15.0662462,25.5069782 14.7119536,26.470654 14.215,27.362 C14.0767381,27.6052674 13.9255206,27.8409396 13.762,28.068 C13.496,28.475 13.255,28.903 12.962,29.28 C12.6844122,29.7546703 12.6798429,30.3410616 12.95,30.82 C13.146103,31.0868289 13.198798,31.4328967 13.091,31.746 C13.049,31.866 12.991,31.987 12.95,32.107 C12.8940273,32.3441148 12.8177457,32.5759708 12.722,32.8 C12.5056374,33.2244839 12.262826,33.6349587 11.995,34.029 C11.7223354,34.5830674 11.2991945,35.0491809 10.774,35.374 C10.753,35.374 10.737,35.411 10.674,35.486 M6.203,22.059 C6.153,22.238 6.112,22.395 6.058,22.549 C5.767,23.396 5.458,24.239 5.186,25.09 C5.05658284,25.4684245 5.03648052,25.8756697 5.128,26.265 C5.253,26.765 5.328,27.278 5.406,27.789 C5.49191912,28.2006773 5.45291891,28.628635 5.294,29.018 C5.128,29.379 4.958,29.74 4.787,30.102 C4.658,30.372 4.525,30.642 4.387,30.907 C4.14780594,31.3135408 4.21986972,31.8312404 4.561,32.157 C4.61706324,32.2110063 4.66340715,32.2742641 4.698,32.344 C4.8662552,32.6542911 5.12179539,32.9084406 5.433,33.075 C5.641,33.175 5.856,33.275 6.072,33.37 C6.53363192,33.5740678 7.04700802,33.6306439 7.542,33.532 C7.64639726,33.5189395 7.73981063,33.4607407 7.79754796,33.3727875 C7.8552853,33.2848343 7.87153436,33.1759806 7.842,33.075 C7.805,32.884 7.751,32.697 7.709,32.506 C7.58,31.962 7.456,31.414 7.327,30.87 C7.277,30.654 7.227,30.438 7.165,30.231 C6.99642005,29.7574595 7.1051023,29.2294641 7.447,28.861 C7.54949593,28.7614971 7.64132674,28.6515682 7.721,28.533 C7.991,28.076 8.252,27.62 8.51,27.159 C8.54898272,27.0850798 8.56201254,27.0002099 8.547,26.918 C8.47233333,26.594 8.38933333,26.2743333 8.298,25.959 C8.16129775,25.6357914 8.06523042,25.2968686 8.012,24.95 C8.03033347,24.3771765 8.08175251,23.8058909 8.166,23.239 C8.19010689,23.1131584 8.19583317,22.9844855 8.183,22.857 C8.12636173,22.601678 8.05694102,22.3493604 7.975,22.101 C7.925,21.939 7.842,21.785 7.805,21.619 C7.751,21.37 7.726,21.119 7.689,20.863 C7.68175971,20.7943247 7.66492932,20.7270031 7.639,20.663 C7.498,20.401 7.353,20.14 7.207,19.882 C7.157,19.791 7.087,19.712 6.987,19.571 C6.879,19.949 6.775,20.271 6.701,20.596 C6.63064771,20.9480503 6.39174756,21.2430303 6.062,21.385 C5.85588116,21.4842285 5.65555915,21.5950733 5.462,21.717 C5.408,21.75 5.333,21.829 5.342,21.871 C5.36777258,21.9428931 5.42150859,22.0013175 5.491,22.033 C5.55826652,22.0597262 5.63102707,22.0696793 5.703,22.062 C5.861,22.062 6.019,22.062 6.197,22.062"/>
</svg>